<svg version="1.2" xmlns="http://www.w3.org/2000/svg" viewBox="0 0 114 45" width="114" height="45"><style>.a{display:none;fill:#ffc05a}.b{display:none;fill:#fff}.c{display:none;fill:#262626}.d{fill:#ffc05a}.e{fill:#fff}</style><path class="a" d="m91.1 0q-3 0-5.9 0.8-2.9 0.8-5.5 2.4-2.6 1.6-4.6 3.7-2.1 2.2-3.5 4.9 0.4 0.1 0.7 0.1 0.3 0.1 0.6 0.2 0.3 0.1 0.6 0.2 0.3 0.1 0.6 0.2 0.5 0.2 0.9 0.4 0.5 0.3 0.9 0.6 0.4 0.3 0.8 0.6 0.4 0.3 0.7 0.7 0.4 0.4 0.7 0.8 0.3 0.4 0.6 0.9 0.3 0.4 0.5 0.9 0.2 0.5 0.4 1 0.2 0.5 0.3 1.1 0.2 0.6 0.3 1.1 0.1 0.6 0.1 1.2 0.1 0.6 0.1 1.2 0 0.6-0.1 1.2 0 0.6-0.1 1.1-0.1 0.6-0.2 1.2-0.2 0.6-0.4 1.1-0.1 0.5-0.3 1-0.3 0.5-0.5 1-0.3 0.4-0.6 0.8-0.3 0.5-0.7 0.9-0.3 0.3-0.7 0.7-0.4 0.3-0.8 0.6-0.4 0.3-0.9 0.5-0.4 0.3-0.9 0.5-0.2 0-0.4 0.1-0.2 0.1-0.3 0.1-0.2 0.1-0.4 0.1-0.2 0.1-0.4 0.1c4.3 6.5 11.6 10.2 19.3 9.9 7.7-0.4 14.7-4.7 18.4-11.5 3.6-6.8 3.5-15.1-0.5-21.7-4-6.6-11.1-10.7-18.8-10.7q0 0 0 0z"/><path class="b" d="m0 6.9l6.1-1v6.3h7.3v5.1h-7.3v7.6q0 0.4 0 0.8 0 0.4 0.1 0.8 0.1 0.4 0.2 0.8 0.2 0.3 0.4 0.7 0.2 0.3 0.5 0.5 0.3 0.3 0.7 0.4 0.3 0.2 0.7 0.2 0.4 0.1 0.8 0 0.2 0 0.5 0 0.2 0 0.5 0 0.3 0 0.5-0.1 0.3 0 0.5 0 0.3-0.1 0.5-0.1 0.2-0.1 0.5-0.2 0.2 0 0.4-0.1 0.3-0.1 0.5-0.2l0.9 4.8q-0.3 0.1-0.6 0.2-0.3 0.1-0.6 0.2-0.4 0.1-0.7 0.2-0.3 0.1-0.6 0.2-0.4 0.1-0.8 0.1-0.4 0.1-0.8 0.1-0.5 0.1-0.9 0.1-0.4 0-0.8 0-0.5 0-1.1 0-0.5 0-1-0.1-0.5-0.1-1-0.3-0.5-0.1-1-0.3-0.4-0.1-0.8-0.3-0.3-0.2-0.7-0.5-0.3-0.2-0.6-0.5-0.3-0.2-0.5-0.6-0.3-0.3-0.5-0.6-0.2-0.4-0.4-0.7-0.2-0.4-0.3-0.8-0.1-0.4-0.2-0.8-0.1-0.5-0.2-0.9-0.1-0.5-0.1-1-0.1-0.5-0.1-0.9 0-0.5 0-1z"/><path class="b" d="m37.2 33.1q-0.5 0.1-1 0.2-0.5 0.1-1 0.3-0.5 0.1-1 0.1-0.5 0.1-1 0.2-0.6 0.1-1.3 0.2-0.6 0.1-1.3 0.1-0.6 0.1-1.3 0.1-0.6 0-1.2 0-0.6 0-1.2 0-0.6-0.1-1.2-0.1-0.5-0.1-1.1-0.3-0.6-0.1-1.1-0.3-0.4-0.2-0.8-0.4-0.4-0.2-0.8-0.5-0.3-0.2-0.7-0.6-0.3-0.3-0.6-0.6-0.3-0.4-0.5-0.7-0.2-0.4-0.4-0.8-0.2-0.4-0.4-0.8-0.1-0.5-0.2-0.9-0.1-0.5-0.2-1-0.1-0.5-0.1-1-0.1-0.5-0.1-1-0.1-0.5-0.1-1v-12.1h6.1v11.3q0 0.6 0 1.1 0.1 0.6 0.2 1.1 0.1 0.5 0.2 1.1 0.2 0.5 0.4 1 0.3 0.3 0.6 0.6 0.3 0.3 0.7 0.4 0.4 0.2 0.8 0.3 0.4 0 0.8 0 0.7 0 1.4-0.1 0.8 0 1.3-0.1v-16.7h6.1c0 0 0 20.9 0 20.9z"/><path class="b" d="m43.2 6.9l6.1-1v6.3h7.3v5.1h-7.3v7.6q0 0.4 0 0.8 0.1 0.4 0.2 0.8 0 0.4 0.2 0.8 0.1 0.3 0.3 0.7 0.2 0.3 0.5 0.5 0.3 0.3 0.7 0.4 0.4 0.2 0.7 0.2 0.4 0.1 0.8 0 0.3 0 0.5 0 0.3 0 0.5 0 0.3 0 0.5-0.1 0.3 0 0.5 0 0.3-0.1 0.5-0.1 0.3-0.1 0.5-0.2 0.2 0 0.5-0.1 0.2-0.1 0.4-0.2l0.9 4.8q-0.3 0.1-0.6 0.2-0.3 0.1-0.6 0.2-0.3 0.1-0.6 0.2-0.3 0.1-0.7 0.2-0.4 0.1-0.8 0.1-0.4 0.1-0.8 0.1-0.4 0.1-0.8 0.1-0.4 0-0.9 0-0.5 0-1 0-0.5 0-1.1-0.1-0.5-0.1-1-0.3-0.5-0.1-1-0.3-0.4-0.1-0.7-0.3-0.4-0.2-0.7-0.4-0.3-0.3-0.6-0.6-0.3-0.2-0.6-0.6-0.3-0.3-0.5-0.6-0.2-0.4-0.4-0.7-0.1-0.4-0.3-0.8-0.1-0.4-0.2-0.8-0.1-0.5-0.1-0.9-0.1-0.5-0.2-1 0-0.5 0-0.9-0.1-0.5-0.1-1c0 0 0-18.1 0-18.1z"/><path class="b" d="m78.5 31.2q0.4-0.3 0.7-0.8 0.3-0.4 0.6-0.8 0.2-0.5 0.5-1 0.2-0.5 0.4-1 0.1-0.5 0.3-1.1 0.1-0.6 0.2-1.2 0.1-0.5 0.2-1.1 0-0.6 0-1.2 0-0.6 0-1.2-0.1-0.6-0.2-1.2-0.1-0.5-0.2-1.1-0.2-0.6-0.4-1.1-0.2-0.5-0.4-1-0.2-0.5-0.5-0.9-0.3-0.5-0.6-0.9-0.3-0.4-0.7-0.8-0.3-0.4-0.7-0.7-0.4-0.3-0.8-0.6-0.4-0.3-0.9-0.6-0.4-0.2-0.9-0.4-0.3-0.1-0.6-0.2-0.3-0.1-0.6-0.2-0.3-0.1-0.6-0.2-0.3 0-0.7-0.1-0.2 0-0.4-0.1-0.2 0-0.5 0-0.2 0-0.4 0-0.2 0-0.5 0-0.5 0-1 0-0.6 0.1-1.1 0.2-0.6 0.1-1.1 0.2-0.5 0.2-1 0.4-0.5 0.2-0.9 0.4-0.5 0.3-0.9 0.6-0.4 0.3-0.8 0.6-0.4 0.3-0.7 0.7-0.4 0.4-0.7 0.8-0.3 0.4-0.6 0.9-0.3 0.4-0.5 0.9-0.3 0.5-0.5 1-0.2 0.5-0.3 1.1-0.2 0.6-0.3 1.1-0.1 0.6-0.1 1.2-0.1 0.6-0.1 1.2 0 0.6 0.1 1.2 0 0.6 0.1 1.2 0.1 0.5 0.3 1.1 0.1 0.6 0.3 1.1 0.2 0.5 0.4 1 0.3 0.5 0.5 1 0.3 0.4 0.6 0.8 0.3 0.5 0.7 0.8 0.3 0.4 0.7 0.8 0.4 0.3 0.8 0.6 0.5 0.3 0.9 0.5 0.5 0.3 0.9 0.5 0.5 0.2 1.1 0.3 0.5 0.2 1 0.3 0.6 0.1 1.1 0.1 0.6 0.1 1.1 0.1 0.4 0 0.8 0 0.3-0.1 0.7-0.1 0.4 0 0.7-0.1 0.4-0.1 0.7-0.2 0.2 0 0.4-0.1 0.2 0 0.4-0.1 0.2 0 0.3-0.1 0.2-0.1 0.4-0.1 0.5-0.2 0.9-0.5 0.5-0.2 0.9-0.5 0.4-0.3 0.8-0.6 0.4-0.4 0.7-0.8zm-4.5-3.7q-0.2 0.3-0.5 0.6-0.3 0.3-0.6 0.5-0.4 0.2-0.8 0.3-0.4 0.2-0.8 0.2 0 0-0.1 0-0.1 0-0.1 0-0.1 0-0.1 0-0.1 0-0.2 0-0.4 0.1-0.9 0-0.5-0.2-0.9-0.4-0.4-0.2-0.8-0.5-0.3-0.3-0.6-0.7-0.3-0.5-0.5-1.1-0.3-0.5-0.4-1.1-0.1-0.6-0.2-1.1-0.1-0.6 0-1.2-0.1-0.6 0-1.2 0-0.6 0.2-1.1 0.1-0.6 0.4-1.1 0.2-0.6 0.5-1.1 0.3-0.3 0.6-0.7 0.4-0.3 0.8-0.5 0.4-0.2 0.8-0.3 0.5-0.1 1-0.1 0 0 0 0 0.5 0 1 0.1 0.4 0.1 0.9 0.3 0.4 0.2 0.7 0.5 0.4 0.3 0.7 0.7 0.3 0.5 0.5 1.1 0.2 0.5 0.4 1.1 0.1 0.5 0.1 1.1 0.1 0.6 0.1 1.2 0 0.6-0.1 1.2 0 0.5-0.2 1.1-0.1 0.6-0.3 1.1-0.3 0.6-0.6 1.1z"/><path class="c" d="m99.4 18.2q-0.8-0.1-1.7-0.3-0.3-0.1-0.6-0.1-0.2-0.1-0.5-0.1-0.2 0-0.5 0-0.3 0-0.5 0-0.2 0-0.3 0-0.2 0-0.3 0-0.2 0-0.3 0-0.2 0-0.3 0-0.2 0.1-0.3 0.1-0.2 0-0.3 0-0.1 0.1-0.3 0.1-0.1 0-0.2 0v14.6h-5.4v-18q0.4-0.2 0.8-0.3 0.5-0.1 0.9-0.3 0.4-0.1 0.8-0.2 0.5-0.1 0.9-0.2 0.5-0.1 1.1-0.2 0.5-0.1 1.1-0.2 0.5 0 1.1 0 0.6-0.1 1.1-0.1 0.4 0 1.1 0.1 0.6 0.1 1.2 0.1 0.6 0.1 1.2 0.3 0.2 0 0.3 0 0.1 0.1 0.3 0.1 0.1 0 0.2 0.1 0.1 0 0.3 0.1z"/><path fill-rule="evenodd" class="d" d="m91 44c-12.2 0-22-9.8-22-22 0-12.2 9.8-22 22-22 12.2 0 22 9.8 22 22 0 12.2-9.8 22-22 22z"/><path class="e" d="m5.2 32v-15.4h-5v-4.2h15.1v4.2h-4.9v15.4zm16.5-9l-6.8-10.4h6.4l2.7 6 2.5-6h6.2l-6 10.4 0.2 9h-5.2zm30.1 9v-9.6l-3.7 8.1h-3.7l-3.7-8.1v9.6h-5.3v-19.6h6.8l4.1 9.1 4.1-9.1h6.8v19.6zm5.9 0v-19.6h12.8v4.2h-7.6v4h5.8v3.3h-5.8v3.9h7.6v4.2z"/><path  d="m71.4 32v-19.6h7c1.5 0 2.9 0.3 4.1 0.7 1.3 0.5 2.3 1.2 3.2 2.1 0.9 0.8 1.6 1.9 2.1 3 0.4 1.2 0.7 2.6 0.7 4 0 2.9-0.9 5.4-2.7 7.1-1.7 1.8-4.3 2.7-7.4 2.7zm4.7-5.6h2c1.5 0 2.9-0.4 3.8-1.2 1-0.7 1.5-1.8 1.5-3 0-1.1-0.5-2.2-1.5-3-0.9-0.7-2.1-1.2-3.4-1.2h-2.4zm13.1 5.6v-19.6h5.5v19.6zm19.7 0l-1.2-4h-5.9l-1.3 4h-5.3l7.1-19.4h4.9l7 19.4zm-2-7.7l-1.9-5.1-2 5.1z"/></svg>